{"title":"SUCKER PUNCH EXTENDED CUT BRRip [MKV AC3][RoB]PR3DATOR RG ","uid":6483420,"size":3040949136,"categoryP":"video","categoryS":"movies","magnet":"?xt=urn:btih:a51499cee9b6fc970adf86418965da38c8bf1a10&amp;dn=SUCKER+PUNCH+EXTENDED+CUT+BRRip+%5BMKV+AC3%5D%5BRoB%5DPR3DATOR+RG+&amp;tr=udp%3A%2F%2Ftracker.openbittorrent.com%3A80&amp;tr=udp%3A%2F%2Fopen.demonii.com%3A1337&amp;tr=udp%3A%2F%2Ftracker.coppersurfer.tk%3A6969&amp;tr=udp%3A%2F%2Fexodus.desync.com%3A6969","seeders":0,"leechers":1,"uploader":"TPBAgri","files":-1,"time":1308615419,"description":"A young girl is institutionalized by her abusive stepfather. Retreating to an alternative reality as a coping strategy, she envisions a plan which will help her escape from the mental facility.\n\n\n\nSAMPLE INCLUDED\n\nGeneral\nComplete name : F:SUCKER PUNCH EXTENDED CUT 720p BRRip [MKV AC3][RoB]PR3DATOR RG\nFormat : Matroska\nFile size : 2.72 GiB\nDuration : 2h 7mn\nOverall bit rate : 3 056 Kbps\nWriting application : Lavf52.13.0\nWriting library : Lavf52.13.0\n\nVideo\nID : 1\nFormat : MPEG-4 Visual\nFormat profile : Simple@L1\nFormat settings, BVOP : No\nFormat settings, QPel : No\nFormat settings, GMC : No warppoints\nFormat settings, Matrix : Default (H.263)\nCodec ID : V_MPEG4/ISO/ASP\nCodec ID/Info : Advanced Simple Profile\nDuration : 2h 7mn\nBit rate : 2 675 Kbps\nWidth : 720 pixels\nHeight : 432 pixels\nDisplay aspect ratio : 16:9\nFrame rate mode : Constant\nFrame rate : 25.000 fps\nColor space : YUV\nChroma subsampling : 4:2:0\nBit depth : 8 bits\nScan type : Progressive\nCompression mode : Lossy\nBits/(Pixel*Frame) : 0.344\nStream size : 2.38 GiB (88%)\nWriting library : Lavc51.54.0\nLanguage : English\n\nAudio\nID : 2\nFormat : AC-3\nFormat/Info : Audio Coding 3\nMode extension : CM (complete main)\nCodec ID : A_AC3\nDuration : 2h 7mn\nBit rate mode : Constant\nBit rate : 320 Kbps\nChannel(s) : 6 channels\nChannel positions : Front: L C R, Side: L R, LFE\nSampling rate : 48.0 KHz\nBit depth : 16 bits\nCompression mode : Lossy\nStream size : 292 MiB (10%)\nLanguage : English\n\n &lt;a href=&quot;\nhttp://img819.imageshack.us/img819/149/bscap0001az.jpg&quot; rel=&quot;nofollow&quot; target=&quot;_NEW&quot;&gt;\nhttp://img819.imageshack.us/img819/149/bscap0001az.jpg&lt;/a&gt;\n &lt;a href=&quot;\nhttp://img69.imageshack.us/img69/754/bscap0002uj.jpg&quot; rel=&quot;nofollow&quot; target=&quot;_NEW&quot;&gt;\nhttp://img69.imageshack.us/img69/754/bscap0002uj.jpg&lt;/a&gt;\n &lt;a href=&quot;\nhttp://img820.imageshack.us/img820/7905/bscap0003hy.jpg&quot; rel=&quot;nofollow&quot; target=&quot;_NEW&quot;&gt;\nhttp://img820.imageshack.us/img820/7905/bscap0003hy.jpg&lt;/a&gt;\n &lt;a href=&quot;\nhttp://img832.imageshack.us/img832/1550/bscap0004jg.jpg&quot; rel=&quot;nofollow&quot; target=&quot;_NEW&quot;&gt;\nhttp://img832.imageshack.us/img832/1550/bscap0004jg.jpg&lt;/a&gt;\n &lt;a href=&quot;\nhttp://img864.imageshack.us/img864/5168/bscap0005s.jpg&quot; rel=&quot;nofollow&quot; target=&quot;_NEW&quot;&gt;\nhttp://img864.imageshack.us/img864/5168/bscap0005s.jpg&lt;/a&gt;","torrent":{"xt":"urn:btih:a51499cee9b6fc970adf86418965da38c8bf1a10","amp;dn":"SUCKER+PUNCH+EXTENDED+CUT+BRRip+%5BMKV+AC3%5D%5BRoB%5DPR3DATOR+RG+","amp;tr":["udp%3A%2F%2Ftracker.openbittorrent.com%3A80","udp%3A%2F%2Fopen.demonii.com%3A1337","udp%3A%2F%2Ftracker.coppersurfer.tk%3A6969","udp%3A%2F%2Fexodus.desync.com%3A6969"],"infoHash":"a51499cee9b6fc970adf86418965da38c8bf1a10","infoHashBuffer":{"type":"Buffer","data":[165,20,153,206,233,182,252,151,10,223,134,65,137,101,218,56,200,191,26,16]},"announce":[],"urlList":[]}}